<svg width="307" height="50" viewBox="0 0 307 50" fill="none" xmlns="http://www.w3.org/2000/svg">
<path d="M-0.00917435 39.4481L40.7216 37.4159C40.7216 36.884 40.7484 36.3596 40.7599 35.8353C15.2362 37.9173 -0.00917435 39.4481 -0.00917435 39.4481Z" fill="#FF7622"/>
<path d="M306.218 24.1664C284.766 24.1128 263.168 24.3884 241.93 24.9012V27.3773L306.218 24.1664Z" fill="#FF7622"/>
<path d="M40.4117 46.3138H54.8611V36.7154L40.7026 37.4234C40.6388 40.304 40.5418 43.2674 40.4117 46.3138Z" fill="#FF7622"/>
<path d="M54.8688 31.0665C56.6214 31.0232 59.2133 31.0027 62.6445 31.0053C70.8871 31.0053 78.7241 31.1482 86.1554 31.4339V19.4321C78.7241 19.6872 71.4177 19.8148 64.2364 19.8148C60.073 19.8148 56.9505 19.7944 54.8688 19.7536V13.3087H88.1606V1.85794H40.4117C40.7383 9.76732 40.9015 17.1766 40.9015 24.0859C40.9015 27.8517 40.8518 31.7707 40.7523 35.8428C45.1555 35.483 49.8584 35.108 54.8611 34.7176L54.8688 31.0665Z" fill="#FF7622"/>
<path d="M129.683 1.85794H107.156L95.6224 31.7592C109.494 30.8292 124.456 29.8954 140.237 29.0228L129.683 1.85794ZM111.932 28.0048C114.707 20.4935 116.809 14.8804 118.238 11.1655L119.704 15.1457C121.339 19.4321 122.932 23.7185 124.483 28.0048H111.932Z" fill="#FF7622"/>
<path d="M90.0126 46.314H105.38L108.442 37.5575H127.958C129.264 41.0683 130.305 43.9871 131.08 46.314H146.938L141.527 32.3871L94.4591 34.7408L90.0126 46.314Z" fill="#FF7622"/>
<path d="M186.991 33.4011C186.991 34.1411 186.297 34.8235 184.91 35.4486C183.522 36.0737 181.134 36.3863 177.746 36.3863C174.126 36.3439 170.525 35.8411 167.032 34.8899C164.013 34.1316 161.098 33.007 158.353 31.5412L156.619 31.6292C155.938 33.5829 155.154 35.4991 154.27 37.3699C153.235 39.4902 152.086 41.5523 150.826 43.5468C154.815 45.6733 159.078 47.2381 163.496 48.1968C168.03 49.2379 172.666 49.7694 177.318 49.7812C185.767 49.7812 192.073 48.4494 196.237 45.7857C200.4 43.122 202.483 38.754 202.485 32.6816C202.491 31.5599 202.339 30.4429 202.034 29.3635L183.697 30.2782C185.893 30.939 186.991 31.98 186.991 33.4011Z" fill="#FF7622"/>
<path d="M196.604 23.0296C192.685 20.9273 186.399 19.8761 177.746 19.8761C174.238 19.8761 171.56 19.5622 169.71 18.9346C167.861 18.3069 166.933 17.4726 166.928 16.4317C166.928 15.3907 167.602 14.6023 168.945 14.0588C170.288 13.5154 172.905 13.2475 176.786 13.2475C180.008 13.2475 183.722 13.8432 187.929 15.0348C192.136 16.2263 195.277 17.7099 197.354 19.4857C197.517 19.0545 197.721 18.4052 197.966 17.5377C199.275 13.4197 200.521 9.93066 201.705 7.07052C197.89 4.98887 193.825 3.40431 189.609 2.35551C185.341 1.23355 180.949 0.654909 176.537 0.633301C169.233 0.633301 163.294 2.02 158.72 4.79339C154.146 7.56678 151.86 11.8799 151.863 17.7329C151.863 21.8509 153.74 24.8309 157.495 26.673C158.602 27.1987 159.755 27.6202 160.939 27.9322C173.74 27.2969 186.961 26.7075 200.461 26.1946C199.419 24.8731 198.103 23.7933 196.604 23.0296Z" fill="#FF7622"/>
<path d="M226.608 28.1428V46.314H241.915V27.3774L226.608 28.1428Z" fill="#FF7622"/>
<path d="M241.915 14.3499C247.954 14.3881 254.178 14.5157 260.589 14.7326V1.87344H207.996V14.7326C214.32 14.5259 220.524 14.3983 226.609 14.3499V25.3107C231.685 25.1627 236.787 25.0262 241.915 24.9012V14.3499Z" fill="#FF7622"/>
</svg>
